<svg id="Layer_1" data-name="Layer 1" xmlns="http://www.w3.org/2000/svg" viewBox="0 0 517.91 232.45"><defs><style>.cls-1{fill:#1e1f1d;}.cls-2{fill:#dfb572;}</style></defs><path class="cls-1" d="M263.53,82.32c0,.58-.44.87-1.45.87a6.83,6.83,0,0,1-1.74-.15l-12.06-.43L236.23,83c-.43,0-.87.15-1.45.15-1.31,0-1.89-.29-1.89-1s.87-1.16,2.62-1.16c5.51,0,8.27-.58,8.27-1.6a2.57,2.57,0,0,0-.14-.72l-.73-2.47-.43-1.31c-.58-1.88-1.89-6.24-4.21-12.92H218.08q-5.66,15-5.66,17.42a1.46,1.46,0,0,0,1.16,1.6c.15,0,1.74.15,4.79.44,1.89,0,2.76.43,2.76,1s-.87,1-2.47,1c-2.9,0-6.24-.14-10.16-.44-1,0-1.89-.14-2.91-.14a17.36,17.36,0,0,0-2.9.29,3.48,3.48,0,0,1-1.16.15c-.87,0-1.31-.3-1.31-.88s1-.87,3.05-1a10,10,0,0,0,4.36-.87,5.43,5.43,0,0,0,2-3c8.13-23.24,14.67-42,19.75-56a9.67,9.67,0,0,1,.87-2.47l.43-1.74c.15-.73.44-1,.73-1s.29.15.44.58c.87,2.47,2.61,7.55,5.51,15.39,2.33,6.1,7.84,21.49,17,46A4.6,4.6,0,0,0,256.27,81c.73.44,2.47.58,4.94.73C262.8,81.45,263.53,81.74,263.53,82.32ZM238,59.67c-1-2.91-2.75-7.55-5.08-14.09l-4.5-13.07c-2.61,7-5.81,16-9.58,27.16Z"/><path class="cls-1" d="M287.92,77.38c0,.58-.72,1.6-2.32,3.05A13.85,13.85,0,0,1,276,84.06q-5.24,0-7.84-2.61c-1-1-1.46-3.92-1.46-8.86V44.42a1,1,0,0,0-1-1h-3.63c-1.45,0-2-.29-2-.72s.29-.73,1-.73c4.94-.43,8.71-2.9,11.47-7.26a1.77,1.77,0,0,1,1.45-.87.69.69,0,0,1,.73.73v1.89a17.89,17.89,0,0,0,.44,5.08,14.73,14.73,0,0,0,2.9.14,35.4,35.4,0,0,0,7-.43c.29,0,.44-.15.73-.15s.72.29.72.87c0,.87-2.61,1.31-7.69,1.31h-3.92V60.68c0,8.86.29,14.38.72,16.56s1.89,3.34,4.36,3.34c2,0,4.35-1.17,7-3.49a1.25,1.25,0,0,1,.87-.43A3,3,0,0,1,287.92,77.38Z"/><path class="cls-1" d="M324.37,72.59a8,8,0,0,1-1.45,3.34,23.56,23.56,0,0,1-3.05,3.92A14.77,14.77,0,0,1,309,84.06,18.64,18.64,0,0,1,294.75,78a21.49,21.49,0,0,1-5.66-15.24c0-6.25,1.74-11.62,5.37-15.83A17.2,17.2,0,0,1,308,40.5a16.17,16.17,0,0,1,11.18,3.92,13.24,13.24,0,0,1,4.79,10,58.07,58.07,0,0,1-8,.44h-6.68c-.44,0-4.21.14-11.33.29a42.53,42.53,0,0,0-.43,5.95c0,6.39,1.16,11.18,3.63,14.66s5.8,5.09,10.31,5.09a10,10,0,0,0,6.09-1.75,21.92,21.92,0,0,0,4.94-6.53c.29-.44.58-.73,1-.73S324.37,72.15,324.37,72.59Zm-8.28-19.31C315.8,45.73,313.19,42,308,42q-7.62,0-9.58,11.33Z"/><path class="cls-1" d="M348.18,82.17c0,.58-.43.87-1.16.87h-1.16c-.15,0-1.74,0-5.08-.14h-2.91c-.43,0-3.05,0-7.55.14h-1.16c-1,0-1.45-.14-1.45-.72s.29-.58,1-.58h2.46c1.75,0,2.62-.44,2.62-1.16,0-.44.14-2.91.14-7.41V25.11a14.09,14.09,0,0,0-.14-3.34,1.45,1.45,0,0,0-1.45-.73h-3.49c-.87,0-1.31-.29-1.31-.87s.73-.72,2.33-.87a23.09,23.09,0,0,0,8.42-2l2-1,.73-.29a38.94,38.94,0,0,1,.72,8.28v53a14.78,14.78,0,0,0,.15,3.34c0,.29.29.58.72.72a30.75,30.75,0,0,0,3.49.15C347.46,81.59,348.18,81.74,348.18,82.17Z"/><path class="cls-1" d="M372,82.32c0,.58-.58.87-1.59.87,0,0-.73,0-2.33-.15-1.88-.14-3.48-.14-4.79-.14h-9.73a1.64,1.64,0,0,1-1.16.44c-.72,0-1-.3-1-.73,0-.73.58-1,1.88-1,2.33,0,3.63-.29,3.92-.58s.29-1.6.29-3.92V48.34a8,8,0,0,0-.29-2.76c-.14-.29-.43-.43-1.16-.43h-3.77c-.73,0-1-.29-1-.73s.58-.58,1.6-.72a22.75,22.75,0,0,0,10.74-2.91l.87-.58a13.08,13.08,0,0,1,.73,5.23v30.2a27.51,27.51,0,0,0,.15,4.5,1.24,1.24,0,0,0,1,.87,15.54,15.54,0,0,0,4.21.44C371.56,81.59,372,81.88,372,82.32Zm-7.11-58.95c0,2.9-1.45,4.21-4.21,4.21a4.72,4.72,0,0,1-3.05-1.16,3.56,3.56,0,0,1-1.16-2.91c0-2.9,1.45-4.5,4.21-4.5S364.88,20.61,364.88,23.37Z"/><path class="cls-1" d="M411.05,72.59a7.82,7.82,0,0,1-1.45,3.34,22.55,22.55,0,0,1-3.05,3.92,14.77,14.77,0,0,1-10.89,4.21A18.67,18.67,0,0,1,381.43,78a21.54,21.54,0,0,1-5.66-15.24c0-6.25,1.74-11.62,5.37-15.83a17.2,17.2,0,0,1,13.51-6.39,16.19,16.19,0,0,1,11.18,3.92,13.27,13.27,0,0,1,4.79,10,58.23,58.23,0,0,1-8,.44H396c-.43,0-4.21.14-11.32.29a42.58,42.58,0,0,0-.44,5.95c0,6.39,1.16,11.18,3.63,14.66s5.81,5.09,10.31,5.09a10.06,10.06,0,0,0,6.1-1.75,22.26,22.26,0,0,0,4.94-6.53c.29-.44.58-.73,1-.73S411.05,72.15,411.05,72.59Zm-8.27-19.31c-.29-7.55-2.91-11.33-8.13-11.33s-8.28,3.78-9.59,11.33Z"/><path class="cls-1" d="M445.32,47.18A5.28,5.28,0,0,1,444,50.81a4.61,4.61,0,0,1-6.24.44,3.33,3.33,0,0,1-1.16-2.47,3.59,3.59,0,0,1,.87-2.33c.58-.58.87-1,.87-1.3,0-1-.72-1.45-2-1.45-1.74,0-3.34,1.16-4.5,3.33-1.45,2.62-2.18,7.41-2.18,14.23V79.85a1.45,1.45,0,0,0,.87,1.45,37.87,37.87,0,0,0,4.94.44c.72.14,1,.43,1,.72,0,.44-.43.73-1.16.73H417.15c-1,0-1.45-.15-1.45-.58s.44-.58,1.16-.58h1.31c2.18,0,3.34-.29,3.77-.73a15.55,15.55,0,0,0,.15-3.48V51.68c0-3.48-.58-5.52-1.6-6.1a10.7,10.7,0,0,0-4.93-.87c-.73,0-1.17-.29-1.17-.72s.29-.73,1-.73h.73a20.19,20.19,0,0,1,2.9.14c1,.15,1.31.15,1.16.15a18.59,18.59,0,0,0,7.7-2l1.16-.58.72-.29a22.88,22.88,0,0,1,.44,4.5V47c2-4.35,4.79-6.38,8.57-6.38a7.15,7.15,0,0,1,5.08,1.88A9.23,9.23,0,0,1,445.32,47.18Z"/><path class="cls-1" d="M224.76,171.91c0,.58-.43.87-1.16.87h-1c-.43-.15-4.64-.29-12.92-.29-1.6,0-3.19,0-4.79.14-.87,0-2,.15-3.78.15-.87,0-1.16-.29-1.16-.87s.87-.73,2.47-.87c2.47,0,4.07-.29,4.5-.87s.73-2.33.73-5.52V114.84c0-3-.15-4.79-.44-5.22-.43-.58-2.18-1-5.23-1.17-1.16,0-1.88-.29-1.88-.72s.43-.73,1.16-.73h12.92c1,0,2.76,0,5.52.15l3.63-.15c1,0,1.45.29,1.45.87s-1.45.73-4.21.88c-1.6,0-2.61.29-2.9.87a9.27,9.27,0,0,0-.58,3.92v50.53c0,3.63.14,5.51.43,5.8.73.73,2.76,1.17,6.1,1.17C224.33,171.18,224.76,171.47,224.76,171.91Z"/><path class="cls-1" d="M275.29,172.05c0,.44-1.16.73-3.48.73-1.89,0-3.49,0-5.09-.15-3.19-.14-5.37-.14-6.67-.14-.88,0-2,0-3.78.14s-2.9.15-3.78.15c-.58,0-.87-.29-.87-.73s.58-.72,1.75-.72c3.05,0,4.5-.44,4.5-1.46s-5.23-7.26-15.83-19V170c0,1,1,1.45,2.61,1.31h2.62c.87,0,1.3.29,1.3.72s-.72.73-2,.73H230.28c-1.45,0-2.32-.29-2.32-.87,0-.29.14-.58.43-.58s1.31-.15,3.2-.15c1.45,0,2.32-.43,2.32-1a33.5,33.5,0,0,0,.14-4.94V119.05c0-4.93,0-7.55-.14-7.69-.15-.44-1-.73-2.76-.73h-2.47c-.72,0-1-.29-1-.72s.72-.73,2.17-.73a20,20,0,0,0,9.44-2.76,6.36,6.36,0,0,1,1.45-.72c.73,0,1,2.61,1,7.84v34.85C251.91,139.24,257,134.3,257,133.28c0-.43-1.17-.58-3.63-.58h-3.05c-1.16,0-1.75-.29-1.75-.72s1-.87,2.91-.87h13.21a20.59,20.59,0,0,1,3.92.14c.44,0,.58.29.58.73s-1.45.72-4.5.72a13.59,13.59,0,0,0-3.92.44,11.78,11.78,0,0,0-2.18,1.74l-11.76,11.47c8.71,9.59,15,16.7,18.59,21.2a11.49,11.49,0,0,0,3.63,3.34,14.88,14.88,0,0,0,4.64.44C275,171.33,275.29,171.62,275.29,172.05Z"/><path class="cls-1" d="M309.7,162.47a7.82,7.82,0,0,1-1.45,3.34,22.55,22.55,0,0,1-3.05,3.92,14.77,14.77,0,0,1-10.89,4.21,18.67,18.67,0,0,1-14.23-6.1,21.55,21.55,0,0,1-5.66-15.24c0-6.25,1.74-11.62,5.37-15.83a17.2,17.2,0,0,1,13.51-6.39,16.19,16.19,0,0,1,11.18,3.92,13.27,13.27,0,0,1,4.79,10,58.23,58.23,0,0,1-8,.44H294.6c-.43,0-4.21.14-11.32.29a42.58,42.58,0,0,0-.44,5.95c0,6.39,1.16,11.18,3.63,14.66s5.81,5.09,10.31,5.09a10.06,10.06,0,0,0,6.1-1.75,22.26,22.26,0,0,0,4.94-6.53c.29-.44.58-.73,1-.73C309.56,161.74,309.7,162,309.7,162.47Zm-8.13-19.31c-.29-7.55-2.9-11.33-8.13-11.33q-7.62,0-9.58,11.33Z"/><path class="cls-1" d="M354.86,150.27a24.74,24.74,0,0,1-5.95,16.7q-5.88,7-14.38,7a19.08,19.08,0,0,1-6.1-1.16,17.37,17.37,0,0,0-4.35-1.16,4.2,4.2,0,0,0-2.32.87,4.41,4.41,0,0,1-2,.87c-.43,0-.72-1-.72-3.05V120.94c0-6.39-.44-9.87-1.16-10.31a14,14,0,0,0-3.63-.29c-1.46,0-2.33-.29-2.33-.72s.29-.73,1-.73h1.3a24,24,0,0,0,10-2.18,7,7,0,0,1,2-.72h.43v29.62c2.33-3.63,6-5.38,10.75-5.38,5.22,0,9.58,1.75,12.77,5.38S354.86,144.32,354.86,150.27Zm-8.57.44c0-6-.87-10.46-2.75-13.65s-4.51-4.79-7.85-4.79a9.57,9.57,0,0,0-5.08,1.59,8.59,8.59,0,0,0-3.19,4.07c-.58,1.6-.87,6.53-.87,15,0,8.71.29,13.79.72,15.53.73,2.62,3.05,3.92,7,3.92s6.54-1.45,8.28-4.21C345,163.78,346.29,158.11,346.29,150.71Z"/><path class="cls-1" d="M398.28,168.57c0,1-1.17,2.18-3.34,3.34a13.71,13.71,0,0,1-6.39,1.74c-4.36,0-6.54-2.18-6.83-6.68-2.32,4.65-6.1,7-11,7a9.45,9.45,0,0,1-6.68-2.47,8,8,0,0,1-2.61-6.24c0-5.23,3-9.29,9.29-12.34a51.45,51.45,0,0,1,11-3v-2.33c0-5.51-.29-9.14-.87-11-1-3.2-3.34-4.79-6.82-4.79a8.65,8.65,0,0,0-5.52,1.74,5.64,5.64,0,0,0-2.18,4.5c0,.44.44.73,1.16.73a3.22,3.22,0,0,1,2.18,1.16,4.17,4.17,0,0,1,1,2.61c0,2.76-1.45,4.21-4.21,4.21a4.79,4.79,0,0,1-3.63-1.45,4.91,4.91,0,0,1-1.45-3.77,10.3,10.3,0,0,1,3.48-7.7c2.61-2.32,6.24-3.49,10.74-3.49,7,0,11.19,1.89,12.78,5.67.58,1.45.87,4.35.87,8.56v17.72a33.58,33.58,0,0,0,.15,5.08c.29,2.32,1.16,3.34,2.76,3.34a5.5,5.5,0,0,0,4.35-1.89,2.37,2.37,0,0,1,1.46-1A1.58,1.58,0,0,1,398.28,168.57Zm-16.7-10v-7c-4.65,1-8,2.47-10,4.21a8.73,8.73,0,0,0-3.05,7,7.1,7.1,0,0,0,1.74,4.94,5.55,5.55,0,0,0,4.36,1.88c2.61,0,4.79-1.45,6.39-4.5C381.43,164.36,381.58,162.18,381.58,158.55Z"/><path class="cls-1" d="M441.11,172.2c0,.43-.44.72-1.45.72H422.09c-.87,0-1.16-.29-1.16-.72s.14-.44.58-.58a18.22,18.22,0,0,1,3.63-.15c1.16,0,1.89-.29,2-.58a9.65,9.65,0,0,0,.29-3v-18c0-6.83-.29-10.89-.72-12.2-1-2.76-3.2-4.21-6.39-4.21a9.86,9.86,0,0,0-8,4.21,5.71,5.71,0,0,0-1,3.34v29.48c0,.72.73,1.16,2,1.16l2.9.14c.58,0,1,.29,1,.73s-.44.72-1.16.72H398.86c-1,0-1.45-.14-1.45-.58s.58-.58,1.74-.72h2.32c1,0,1.45-.29,1.74-.73l.29-1.45V149c0-7.12,0-11.18-.14-11.91s-.87-1.16-2.32-1.16h-2.76c-1.31,0-1.89-.29-1.89-.73s.72-.87,2-.87a24.37,24.37,0,0,0,6.1-1,10.65,10.65,0,0,0,4.65-2.17,3,3,0,0,1,1.3-.73c.44,0,.73.58.73,1.74v4.5a15.55,15.55,0,0,1,12.63-6.39c4.5,0,7.84,1.75,9.88,5.09,1.16,1.88,1.74,5.51,1.74,10.74v21.49a10.72,10.72,0,0,0,.29,3.34c.43.44,1.3.58,2.76.58h1.74C440.82,171.62,441.11,171.91,441.11,172.2Z"/><path class="cls-1" d="M482.06,168.57c0,1-1.16,2.18-3.34,3.34a13.71,13.71,0,0,1-6.39,1.74c-4.36,0-6.54-2.18-6.83-6.68-2.32,4.65-6.09,7-11,7a9.45,9.45,0,0,1-6.68-2.47,8,8,0,0,1-2.61-6.24c0-5.23,3.05-9.29,9.29-12.34a51.45,51.45,0,0,1,11-3v-2.33c0-5.51-.29-9.14-.87-11-1-3.2-3.34-4.79-6.82-4.79a8.65,8.65,0,0,0-5.52,1.74,5.64,5.64,0,0,0-2.18,4.5c0,.44.44.73,1.16.73a3.22,3.22,0,0,1,2.18,1.16,4.17,4.17,0,0,1,1,2.61c0,2.76-1.45,4.21-4.21,4.21a4.79,4.79,0,0,1-3.63-1.45,4.91,4.91,0,0,1-1.45-3.77,10.3,10.3,0,0,1,3.48-7.7c2.61-2.32,6.24-3.49,10.75-3.49,7,0,11.18,1.89,12.77,5.67.58,1.45.87,4.35.87,8.56v17.72a33.58,33.58,0,0,0,.15,5.08c.29,2.32,1.16,3.34,2.76,3.34a5.5,5.5,0,0,0,4.35-1.89,2.39,2.39,0,0,1,1.46-1A1.58,1.58,0,0,1,482.06,168.57Zm-16.7-10v-7c-4.65,1-8,2.47-10,4.21a8.73,8.73,0,0,0-3,7A7.1,7.1,0,0,0,454,167.7a5.55,5.55,0,0,0,4.36,1.88c2.61,0,4.79-1.45,6.39-4.5C465.21,164.36,465.36,162.18,465.36,158.55Z"/><path class="cls-2" d="M159,72.15V46L97.28,94.37V16.11H76.66V64.17L35.56,49.5V71.28L76.66,86V189.48A41,41,0,0,1,56.18,153.9V100.47L35.56,93.21V153.9a61.72,61.72,0,0,0,123.43,0V98.29l-20.48,16.12V153.9A41.15,41.15,0,0,1,97.42,195h0V120.51Z"/><path class="cls-1" d="M200.17,215.57V196.83h6.76a10,10,0,0,1,2.81.34,5.09,5.09,0,0,1,1.92,1,3.8,3.8,0,0,1,1.08,1.5,5.36,5.36,0,0,1,.33,1.91,4.79,4.79,0,0,1-.26,1.7,3.64,3.64,0,0,1-.67,1.2,3.25,3.25,0,0,1-.95.76,3.82,3.82,0,0,1-1.11.37v.06a4.23,4.23,0,0,1,2.9,1.53,5,5,0,0,1,1,3.12,6.11,6.11,0,0,1-.45,2.48,4.42,4.42,0,0,1-1.26,1.64,5.17,5.17,0,0,1-1.94.89,10.13,10.13,0,0,1-2.46.28Zm1.77-10.46h4.47a9.56,9.56,0,0,0,2.32-.24,3.92,3.92,0,0,0,1.51-.69,2.59,2.59,0,0,0,.82-1.12,4.45,4.45,0,0,0,.24-1.52A3.56,3.56,0,0,0,211,200a2.31,2.31,0,0,0-.91-1,4.45,4.45,0,0,0-1.63-.55,15.44,15.44,0,0,0-2.46-.17h-4.08Zm0,8.95h4.5a23.16,23.16,0,0,0,2.54-.13,4.79,4.79,0,0,0,1.78-.54,2.47,2.47,0,0,0,1.05-1.14,4.57,4.57,0,0,0,.35-2,3.89,3.89,0,0,0-.39-1.88,2.66,2.66,0,0,0-1.12-1.11,5,5,0,0,0-1.74-.53,15.57,15.57,0,0,0-2.26-.15h-4.71Z"/><path class="cls-1" d="M238.76,205.86l5.65-9h2.05l-6.79,10.57v8.17H237.9v-8l-6.69-10.7h2Z"/><path class="cls-1" d="M287.35,209.63c0,.59,0,1.18.06,1.75a4.47,4.47,0,0,0,.39,1.55,2.57,2.57,0,0,0,1,1.1,3.66,3.66,0,0,0,1.91.42,2.94,2.94,0,0,0,2.56-1,5.14,5.14,0,0,0,.74-3V196.83h1.77v13.61a6.15,6.15,0,0,1-1.27,4.18,5.1,5.1,0,0,1-4,1.44,5.31,5.31,0,0,1-2.55-.53,3.87,3.87,0,0,1-1.49-1.43,5.66,5.66,0,0,1-.72-2.06,15.61,15.61,0,0,1-.18-2.41Z"/><path class="cls-1" d="M315.61,215.57V196.83h12.46v1.51H317.38v6.77H327v1.5h-9.65v7.45h10.95v1.51Z"/><path class="cls-1" d="M347.72,210a5.58,5.58,0,0,0,.56,2.12,4.1,4.1,0,0,0,1.17,1.42,4.51,4.51,0,0,0,1.65.79,7.69,7.69,0,0,0,2,.25,6.66,6.66,0,0,0,2.16-.31,4,4,0,0,0,1.48-.85,3.24,3.24,0,0,0,.85-1.23,4.14,4.14,0,0,0,.27-1.49,2.91,2.91,0,0,0-.49-1.76,3.77,3.77,0,0,0-1.29-1.11,7.66,7.66,0,0,0-1.82-.69l-2.11-.51c-.72-.16-1.42-.36-2.11-.58a6.74,6.74,0,0,1-1.82-.91,4.57,4.57,0,0,1-1.29-1.47,4.7,4.7,0,0,1-.49-2.28,4.61,4.61,0,0,1,.4-1.88,4.75,4.75,0,0,1,1.2-1.61,5.88,5.88,0,0,1,2-1.12,8.53,8.53,0,0,1,2.76-.41,7.82,7.82,0,0,1,2.77.44,5.43,5.43,0,0,1,2,1.21,4.93,4.93,0,0,1,1.17,1.78,6,6,0,0,1,.39,2.16H357.4a4.1,4.1,0,0,0-.38-1.85,3.46,3.46,0,0,0-1-1.27,4.32,4.32,0,0,0-1.49-.73,6.13,6.13,0,0,0-1.71-.23,6,6,0,0,0-2.28.37,3.91,3.91,0,0,0-1.47,1,3.25,3.25,0,0,0-.76,1.33,3.1,3.1,0,0,0-.07,1.45,2.51,2.51,0,0,0,.72,1.46,4.87,4.87,0,0,0,1.41.9,11.06,11.06,0,0,0,1.84.57l2,.47c.69.16,1.36.36,2,.58a6.28,6.28,0,0,1,1.74.92,4.14,4.14,0,0,1,1.2,1.47,5.51,5.51,0,0,1-1.34,6.28,7.91,7.91,0,0,1-5,1.43,9,9,0,0,1-2.71-.38,6,6,0,0,1-2.16-1.14,5.28,5.28,0,0,1-1.42-1.9A6.46,6.46,0,0,1,346,210Z"/><path class="cls-1" d="M379.11,210a5.41,5.41,0,0,0,.55,2.12,4.24,4.24,0,0,0,1.18,1.42,4.36,4.36,0,0,0,1.65.79,7.56,7.56,0,0,0,2,.25,6.66,6.66,0,0,0,2.16-.31,4.13,4.13,0,0,0,1.49-.85,3.22,3.22,0,0,0,.84-1.23,4.14,4.14,0,0,0,.27-1.49,2.91,2.91,0,0,0-.49-1.76,3.77,3.77,0,0,0-1.29-1.11,7.66,7.66,0,0,0-1.82-.69l-2.11-.51c-.72-.16-1.42-.36-2.11-.58a6.89,6.89,0,0,1-1.82-.91,4.57,4.57,0,0,1-1.29-1.47,4.7,4.7,0,0,1-.49-2.28,4.61,4.61,0,0,1,.4-1.88,4.75,4.75,0,0,1,1.2-1.61,5.88,5.88,0,0,1,2-1.12,8.62,8.62,0,0,1,2.76-.41,7.78,7.78,0,0,1,2.77.44,5.56,5.56,0,0,1,2,1.21,4.93,4.93,0,0,1,1.17,1.78,6,6,0,0,1,.39,2.16h-1.69a4.24,4.24,0,0,0-.38-1.85,3.48,3.48,0,0,0-1-1.27,4.27,4.27,0,0,0-1.48-.73,6.2,6.2,0,0,0-1.72-.23,6.12,6.12,0,0,0-2.28.37,4.07,4.07,0,0,0-1.47,1,3.34,3.34,0,0,0-.75,1.33,3.1,3.1,0,0,0-.08,1.45,2.52,2.52,0,0,0,.73,1.46,4.82,4.82,0,0,0,1.4.9,11.36,11.36,0,0,0,1.84.57c.67.15,1.35.3,2,.47a20.61,20.61,0,0,1,2,.58,6.08,6.08,0,0,1,1.73.92,4.27,4.27,0,0,1,1.21,1.47,5,5,0,0,1,.45,2.25,4.87,4.87,0,0,1-1.79,4,8,8,0,0,1-5.05,1.43,9.11,9.11,0,0,1-2.71-.38,6,6,0,0,1-2.16-1.14,5.39,5.39,0,0,1-1.42-1.9,6.63,6.63,0,0,1-.5-2.67Z"/><path class="cls-1" d="M410.39,215.57V196.83h1.77v18.74Z"/><path class="cls-1" d="M445.78,202.27a5.38,5.38,0,0,0-2-3.41,6.71,6.71,0,0,0-3.88-1,5.69,5.69,0,0,0-4.93,2.49,8.07,8.07,0,0,0-1.17,2.65,12.91,12.91,0,0,0-.38,3.16,14.36,14.36,0,0,0,.33,3.07,7.92,7.92,0,0,0,1.08,2.69,5.65,5.65,0,0,0,2,1.91,6.31,6.31,0,0,0,3.2.73,5.87,5.87,0,0,0,2.18-.39,5.39,5.39,0,0,0,1.73-1.08,6.26,6.26,0,0,0,1.25-1.62,8,8,0,0,0,.77-2.06h1.85a11.62,11.62,0,0,1-.91,2.56,7.18,7.18,0,0,1-3.94,3.57,9.26,9.26,0,0,1-3.27.53,8,8,0,0,1-3.7-.79,7.08,7.08,0,0,1-2.51-2.15,9.11,9.11,0,0,1-1.42-3.14,15.86,15.86,0,0,1-.44-3.78,13.54,13.54,0,0,1,.67-4.56,8.14,8.14,0,0,1,1.83-3,6.86,6.86,0,0,1,2.76-1.72,10.68,10.68,0,0,1,3.46-.53,9.21,9.21,0,0,1,2.67.37,6.39,6.39,0,0,1,2.18,1.14,5.87,5.87,0,0,1,1.56,1.86,7.8,7.8,0,0,1,.85,2.56Z"/><path class="cls-1" d="M465,215.57l7.36-18.74h2l7.19,18.74h-1.82l-2.16-5.88h-8.54l-2.21,5.88Zm4.63-7.39H477l-3.67-9.84Z"/></svg>