<svg width="99" height="99" viewBox="0 0 99 99" fill="none" xmlns="http://www.w3.org/2000/svg">
<circle cx="49.5" cy="49.5" r="49.5" fill="#A3B56B"/>
<path d="M52.654 30H75V49.1635C75 52.3683 74.4102 54.9845 73.2962 57.1429C72.1166 59.2358 70.675 61.0017 68.8401 62.3752C67.0052 63.7487 64.9738 64.8606 62.7457 65.7108C60.5177 66.5611 58.2896 67.2805 56.0616 68L52.7851 62.0482C54.4233 61.3941 55.865 60.8055 57.0446 60.1515C58.2241 59.4974 59.2071 58.778 59.9279 58.0585C60.6488 57.2737 61.2385 56.4234 61.5662 55.4423C61.8938 54.4613 62.0904 53.284 62.0904 51.9759H52.654V30ZM25 30H47.2805V49.1635C47.2805 52.3683 46.6907 54.9845 45.5767 57.1429C44.3971 59.2358 42.9554 61.0017 41.1206 62.3752C39.2857 63.7487 37.2543 64.8606 35.0262 65.7108C32.7982 66.5611 30.5701 67.2805 28.3421 68L25.0655 62.0482C26.7038 61.3941 28.1455 60.7401 29.325 60.0861C30.5046 59.432 31.4875 58.7126 32.2084 57.9931C32.9292 57.2083 33.519 56.358 33.8467 55.3769C34.1743 54.3959 34.3709 53.2186 34.3709 51.9105H25V30Z" fill="#F1F4E9"/>
</svg>
